<?xml version="1.0" standalone="no"?>
<!DOCTYPE svg PUBLIC "-//W3C//DTD SVG 20010904//EN"
 "http://www.w3.org/TR/2001/REC-SVG-20010904/DTD/svg10.dtd">
<svg version="1.0" xmlns="http://www.w3.org/2000/svg"
 width="882.000000pt" height="216.000000pt" viewBox="0 0 882.000000 216.000000"
 preserveAspectRatio="xMidYMid meet">

<g transform="translate(0.000000,216.000000) scale(0.100000,-0.100000)"
fill="#000000" stroke="none">
<path d="M4793 1958 c-13 -6 -23 -15 -23 -20 0 -4 -5 -8 -11 -8 -6 0 -24 -13
-39 -30 -15 -16 -33 -30 -39 -30 -6 0 -11 -5 -11 -11 0 -12 -25 -39 -35 -39
-4 0 -20 -13 -35 -30 -15 -16 -31 -30 -34 -30 -4 0 -31 -25 -61 -55 -48 -50
-95 -72 -95 -45 0 6 -5 10 -10 10 -14 0 -60 46 -60 60 0 5 -6 10 -13 10 -7 0
-19 9 -27 20 -8 11 -18 20 -23 20 -4 0 -19 10 -32 23 -64 58 -75 67 -82 67 -5
0 -15 9 -23 20 -8 11 -19 20 -25 20 -6 0 -17 9 -25 20 -23 32 -73 22 -111 -22
-9 -10 -20 -18 -23 -18 -11 0 -36 -27 -36 -39 0 -6 -4 -11 -9 -11 -4 0 -22
-13 -39 -30 -18 -16 -34 -30 -38 -30 -3 0 -30 -25 -59 -55 -30 -30 -57 -55
-60 -55 -3 0 -21 -15 -39 -32 -18 -18 -51 -47 -72 -65 -36 -29 -72 -58 -101
-83 -7 -5 -17 -10 -23 -10 -5 0 -10 -6 -10 -13 0 -7 -12 -21 -27 -32 -15 -11
-37 -30 -49 -42 -13 -13 -26 -23 -29 -23 -3 0 -30 -25 -60 -55 -29 -30 -56
-55 -59 -55 -3 0 -25 -18 -47 -40 -23 -22 -45 -40 -50 -40 -16 0 -9 -42 9 -56
37 -29 86 -13 144 48 14 15 29 28 32 28 4 0 29 21 56 48 65 63 109 102 116
102 3 0 30 25 59 55 30 30 58 55 61 55 4 0 14 8 23 18 9 10 34 31 56 47 22 17
47 38 56 47 9 10 19 18 23 18 4 0 33 26 66 58 75 73 119 112 126 112 4 0 21
16 39 36 22 24 38 33 46 28 21 -12 49 -36 85 -71 18 -18 36 -33 39 -33 3 0 30
-25 60 -55 29 -30 57 -55 60 -55 4 0 20 -13 35 -30 15 -16 31 -30 35 -30 3 0
13 -7 21 -15 9 -8 26 -15 38 -15 21 0 40 13 134 98 20 17 40 32 44 32 4 0 8 5
8 11 0 12 25 39 35 39 4 0 20 14 35 30 15 17 31 30 35 30 4 0 27 21 53 47 26
28 47 42 50 35 2 -7 8 -12 14 -12 13 0 38 -26 38 -39 0 -6 5 -11 11 -11 6 0
24 -13 39 -30 15 -16 31 -30 34 -30 4 0 35 -29 71 -65 35 -36 66 -65 70 -65 3
0 30 -25 60 -55 29 -30 56 -55 60 -55 4 0 40 -34 81 -75 41 -41 77 -75 80 -75
3 0 30 -25 59 -55 30 -30 57 -55 60 -55 4 0 31 -25 60 -55 54 -54 79 -64 119
-49 18 7 23 74 6 74 -5 0 -10 7 -10 15 0 8 -5 15 -11 15 -6 0 -24 14 -39 30
-15 17 -31 30 -34 30 -11 0 -56 48 -56 60 0 5 -5 10 -11 10 -6 0 -24 14 -39
30 -15 17 -31 30 -34 30 -6 0 -52 43 -197 183 -32 31 -61 57 -64 57 -3 0 -34
29 -70 65 -35 36 -67 65 -70 65 -3 0 -35 29 -70 65 -36 36 -67 65 -70 65 -3 0
-19 14 -37 30 -33 32 -49 35 -85 18z"/>
<path d="M3993 1607 c-40 -41 -96 -88 -116 -98 -11 -6 -39 -31 -63 -55 -23
-24 -45 -44 -49 -44 -4 0 -20 -13 -35 -30 -15 -16 -31 -30 -35 -30 -10 0 -35
-27 -35 -39 0 -6 -3 -11 -7 -11 -8 0 -57 -39 -103 -80 -15 -14 -39 -34 -55
-45 -15 -11 -38 -30 -51 -42 -13 -13 -28 -23 -34 -23 -7 0 -10 -126 -10 -393
l0 -394 25 -11 c19 -9 279 -12 988 -12 529 0 972 3 985 6 12 4 22 13 22 20 0
8 5 14 10 14 6 0 10 132 10 375 0 243 -4 375 -10 375 -5 0 -10 9 -10 20 0 11
-3 20 -7 20 -13 0 -63 47 -63 59 0 6 -5 11 -10 11 -6 0 -25 15 -43 33 -18 17
-45 41 -60 52 -15 11 -27 25 -27 32 0 7 -5 13 -11 13 -6 0 -24 14 -39 30 -15
17 -31 30 -34 30 -4 0 -35 29 -71 65 -35 36 -66 65 -70 65 -3 0 -30 25 -60 55
-47 49 -58 55 -94 55 -23 0 -41 -4 -41 -10 0 -5 -5 -10 -11 -10 -6 0 -35 -25
-64 -55 -30 -30 -61 -55 -70 -55 -8 0 -15 -4 -15 -10 0 -5 -7 -10 -15 -10 -8
0 -15 -5 -15 -11 0 -12 -25 -39 -35 -39 -4 0 -20 -13 -35 -30 -15 -16 -32 -30
-37 -30 -5 0 -15 -9 -23 -20 -15 -20 -60 -28 -60 -10 0 6 -5 10 -11 10 -6 0
-40 29 -75 65 -36 36 -67 65 -69 65 -3 0 -24 18 -46 40 -23 22 -45 40 -50 40
-5 0 -9 6 -9 13 0 8 -11 20 -25 27 -14 7 -25 17 -25 22 0 4 -19 8 -42 7 -30 0
-49 -7 -65 -22z m81 -112 c8 -8 17 -15 20 -15 3 0 25 -18 47 -40 23 -22 45
-40 50 -40 5 0 9 -5 9 -11 0 -12 25 -39 35 -39 4 0 20 -13 35 -30 15 -16 31
-30 35 -30 8 0 35 -27 35 -35 0 -9 27 -35 37 -35 5 0 15 -9 23 -20 8 -11 18
-20 23 -20 12 0 57 -47 57 -60 0 -5 5 -10 10 -10 6 0 22 -11 35 -25 l25 -24 0
-331 0 -330 -515 0 c-369 0 -519 3 -528 11 -17 16 -13 599 4 631 13 24 59 68
71 68 4 0 23 16 42 35 20 19 38 35 41 35 3 0 27 21 54 48 73 70 131 122 136
122 3 0 17 11 32 25 67 60 99 85 108 85 6 0 19 11 29 25 22 29 29 30 50 10z
m797 -16 c9 -11 19 -19 23 -19 4 0 36 -29 71 -65 36 -36 67 -65 70 -65 4 0 35
-29 70 -65 36 -36 67 -65 71 -65 3 0 31 -25 60 -55 30 -30 57 -55 60 -55 3 0
12 -6 20 -14 12 -12 14 -72 14 -345 l0 -331 -326 0 c-272 0 -328 2 -340 15
-12 12 -15 67 -14 342 0 180 1 333 0 339 0 15 -107 124 -120 124 -22 0 -8 38
22 61 17 13 46 39 64 57 19 17 36 32 39 32 3 0 24 18 47 40 24 22 51 43 61 46
9 3 17 10 17 15 0 5 7 9 15 9 8 0 15 7 15 16 0 20 38 9 61 -17z"/>
<path d="M775 1474 c-19 -26 -20 -48 -25 -505 l-5 -478 23 -12 c12 -7 22 -16
22 -21 0 -13 396 -9 482 4 43 7 78 16 78 20 0 4 11 8 25 8 14 0 25 5 25 10 0
6 11 10 25 10 14 0 25 5 25 10 0 6 7 10 15 10 26 0 165 130 165 155 0 8 4 15
10 15 5 0 12 11 16 25 3 14 10 25 15 25 5 0 9 9 9 20 0 11 5 20 10 20 6 0 10
19 10 43 1 23 7 53 15 67 8 14 14 48 14 75 0 28 -6 61 -14 75 -8 14 -14 39
-15 57 0 17 -4 35 -10 38 -5 3 -10 17 -10 31 0 13 -3 24 -8 24 -4 0 -16 17
-27 38 -22 40 -128 152 -145 152 -5 0 -10 5 -10 10 0 6 -9 10 -20 10 -11 0
-20 4 -20 8 0 4 -22 16 -50 27 -27 11 -50 23 -50 27 0 4 -27 8 -60 8 -33 0
-60 4 -60 10 0 6 -79 10 -218 10 l-217 0 -20 -26z m505 -114 c0 -5 16 -10 35
-10 19 0 35 -4 35 -8 0 -4 16 -14 35 -21 19 -7 35 -17 35 -22 0 -5 5 -9 10 -9
17 0 90 -77 90 -94 0 -9 5 -16 10 -16 6 0 10 -9 10 -19 0 -11 5 -21 11 -23 22
-7 39 -84 39 -175 0 -51 -4 -95 -10 -98 -5 -3 -10 -17 -10 -31 0 -15 -6 -24
-15 -24 -9 0 -15 -9 -15 -25 0 -14 -4 -25 -10 -25 -5 0 -10 -7 -10 -16 0 -15
-23 -44 -35 -44 -3 0 -16 -10 -29 -22 -56 -55 -116 -88 -157 -88 -11 0 -19 -4
-19 -10 0 -6 -73 -10 -200 -10 l-200 0 0 400 0 400 200 0 c127 0 200 -4 200
-10z"/>
<path d="M2300 1490 c0 -5 -18 -10 -40 -10 -22 0 -40 -4 -40 -8 0 -5 -19 -18
-42 -28 -47 -21 -64 -33 -114 -81 -18 -18 -38 -33 -44 -33 -5 0 -10 -7 -10
-15 0 -8 -3 -15 -7 -15 -5 0 -17 -18 -27 -40 -11 -22 -23 -40 -28 -40 -4 0 -8
-9 -8 -20 0 -11 -4 -20 -10 -20 -5 0 -10 -20 -10 -45 0 -25 -4 -45 -10 -45 -6
0 -10 -45 -10 -114 0 -66 4 -117 10 -121 6 -3 10 -24 10 -46 0 -21 5 -39 10
-39 6 0 10 -9 10 -20 0 -19 6 -29 38 -65 6 -7 12 -18 12 -24 0 -12 96 -111
108 -111 4 0 14 -9 22 -20 8 -11 22 -20 32 -20 9 0 20 -4 23 -10 3 -5 15 -10
26 -10 10 0 19 -4 19 -9 0 -5 12 -11 28 -14 15 -3 45 -10 67 -16 65 -17 262
-14 320 6 79 26 105 37 105 45 0 5 10 8 23 8 12 0 29 9 37 20 8 11 20 20 27
20 12 0 31 18 103 97 11 12 20 29 20 38 0 8 5 15 10 15 6 0 10 9 10 20 0 11 7
23 15 26 8 4 15 18 15 34 0 16 5 30 11 32 16 5 16 311 0 316 -6 2 -11 17 -11
33 0 17 -6 32 -15 35 -8 4 -15 15 -15 25 0 10 -4 19 -10 19 -5 0 -10 7 -10 15
0 9 -11 28 -25 43 -14 15 -25 31 -25 35 0 12 -27 37 -39 37 -6 0 -11 4 -11 9
0 5 -13 14 -30 21 -16 7 -30 15 -30 19 0 4 -22 15 -50 26 -27 11 -50 23 -50
27 0 4 -16 8 -35 8 -19 0 -35 5 -35 10 0 6 -60 10 -160 10 -100 0 -160 -4
-160 -10z m277 -105 c19 -8 44 -15 54 -15 11 0 19 -4 19 -10 0 -5 9 -10 20
-10 11 0 20 -4 20 -10 0 -5 7 -10 15 -10 8 0 15 -4 15 -10 0 -5 7 -10 15 -10
19 0 75 -55 75 -75 0 -8 7 -15 15 -15 8 0 15 -9 15 -20 0 -11 5 -20 10 -20 6
0 10 -9 10 -20 0 -11 5 -20 10 -20 6 0 10 -12 10 -26 0 -14 7 -48 16 -76 15
-43 15 -58 5 -107 -7 -31 -15 -71 -18 -88 -3 -18 -9 -33 -14 -33 -5 0 -9 -11
-9 -24 0 -12 -11 -35 -25 -50 -14 -15 -25 -32 -25 -38 0 -13 -49 -56 -72 -64
-10 -3 -18 -10 -18 -15 0 -5 -7 -9 -15 -9 -8 0 -15 -4 -15 -10 0 -5 -9 -10
-20 -10 -11 0 -20 -4 -20 -10 0 -5 -13 -10 -29 -10 -17 0 -33 -4 -36 -10 -8
-13 -245 -13 -245 0 0 6 -16 10 -35 10 -19 0 -35 4 -35 9 0 5 -12 12 -26 15
-14 4 -48 29 -75 56 -28 28 -54 50 -59 50 -6 0 -10 9 -10 20 0 11 -4 20 -10
20 -5 0 -10 7 -10 15 0 8 -3 15 -8 15 -18 0 -35 83 -39 185 -4 87 -1 121 13
163 10 28 22 52 26 52 4 0 8 7 8 15 0 8 5 15 10 15 6 0 10 7 10 15 0 15 73 95
87 95 5 0 15 9 23 20 8 11 25 20 37 20 13 0 23 5 23 10 0 6 16 10 35 10 19 0
35 4 35 9 0 23 184 28 237 6z"/>
<path d="M5908 1469 c-16 -27 -18 -63 -18 -327 1 -163 5 -317 11 -342 5 -25
12 -62 16 -82 3 -21 10 -38 14 -38 5 0 9 -7 9 -15 0 -16 8 -28 48 -70 12 -13
22 -27 22 -30 0 -10 28 -35 39 -35 6 0 11 -4 11 -10 0 -5 9 -10 20 -10 11 0
20 -4 20 -10 0 -5 11 -10 25 -10 14 0 25 -4 25 -10 0 -5 8 -10 19 -10 10 0 35
-7 54 -15 54 -22 228 -20 295 3 29 10 55 22 59 25 3 4 15 7 25 7 10 0 18 5 18
10 0 6 9 10 20 10 11 0 20 5 20 10 0 6 5 10 10 10 15 0 90 76 90 90 0 6 6 18
13 25 32 37 37 46 37 75 0 16 5 30 10 30 6 0 10 128 10 365 0 318 -2 365 -15
365 -8 0 -15 5 -15 10 0 6 -18 10 -40 10 -22 0 -40 -4 -40 -10 0 -5 -7 -10
-15 -10 -13 0 -15 -48 -15 -370 0 -240 -4 -370 -10 -370 -5 0 -10 -9 -10 -20
0 -11 -4 -20 -10 -20 -5 0 -10 -9 -10 -20 0 -11 -5 -20 -11 -20 -14 0 -39 -25
-39 -39 0 -6 -7 -11 -15 -11 -8 0 -15 -4 -15 -10 0 -5 -9 -10 -20 -10 -11 0
-20 -4 -20 -10 0 -5 -11 -10 -25 -10 -14 0 -25 -4 -25 -10 0 -6 -45 -10 -115
-10 -70 0 -115 4 -115 10 0 6 -11 10 -24 10 -14 0 -28 4 -31 10 -3 5 -13 10
-21 10 -19 0 -94 76 -94 95 0 8 -7 15 -15 15 -8 0 -15 9 -15 19 0 11 -4 23
-10 26 -6 4 -10 137 -10 366 0 401 2 389 -67 389 -32 0 -41 -5 -55 -31z"/>
<path d="M7300 1490 c0 -5 -16 -10 -35 -10 -19 0 -35 -4 -35 -9 0 -5 -8 -12
-17 -15 -17 -6 -36 -20 -110 -84 -18 -15 -32 -37 -33 -49 0 -12 -4 -25 -10
-28 -5 -3 -10 -44 -10 -90 0 -46 5 -87 10 -90 6 -3 10 -13 10 -21 0 -16 23
-44 36 -44 3 0 14 -8 23 -18 23 -25 67 -52 86 -52 8 0 15 -4 15 -10 0 -5 11
-10 25 -10 14 0 25 -4 25 -10 0 -5 16 -10 35 -10 19 0 35 -4 35 -10 0 -5 20
-10 45 -10 25 0 45 -4 45 -10 0 -5 18 -10 39 -10 22 0 43 -4 46 -10 3 -5 16
-10 28 -10 28 0 107 -30 107 -41 0 -5 7 -9 16 -9 19 0 54 -37 54 -57 0 -7 5
-13 10 -13 6 0 10 -18 10 -40 0 -22 -4 -40 -10 -40 -5 0 -10 -7 -10 -15 0 -16
-44 -63 -78 -82 -12 -7 -33 -13 -47 -13 -14 0 -25 -4 -25 -10 0 -6 -53 -10
-140 -10 -87 0 -140 4 -140 10 0 6 -20 10 -45 10 -25 0 -45 5 -45 10 0 6 -16
10 -35 10 -19 0 -35 5 -35 10 0 6 -20 10 -45 10 -25 0 -45 -4 -45 -9 0 -5 -7
-17 -16 -25 -14 -15 -14 -17 0 -32 9 -8 16 -20 16 -25 0 -5 9 -9 20 -9 11 0
20 -4 20 -10 0 -5 16 -10 35 -10 19 0 35 -4 35 -10 0 -5 11 -10 24 -10 13 0
53 -7 87 -16 71 -18 335 -17 360 2 8 6 33 16 57 24 23 7 42 17 42 22 0 4 8 8
18 8 10 0 24 9 32 20 8 11 20 20 27 20 7 0 13 7 13 15 0 8 5 15 10 15 6 0 10
9 10 19 0 11 5 21 12 23 7 3 13 37 16 94 3 74 1 93 -12 106 -9 9 -16 21 -16
27 0 16 -80 91 -96 91 -8 0 -14 5 -14 10 0 6 -11 10 -25 10 -14 0 -25 5 -25
10 0 6 -16 10 -35 10 -19 0 -35 5 -35 10 0 6 -15 10 -33 10 -19 0 -37 3 -41 8
-4 4 -33 12 -64 19 -31 6 -75 17 -97 23 -22 6 -52 14 -67 17 -16 3 -28 9 -28
14 0 5 -7 9 -15 9 -8 0 -15 5 -15 10 0 6 -9 10 -20 10 -11 0 -20 6 -20 14 0 7
-7 19 -15 26 -10 8 -15 31 -15 67 0 51 3 58 40 94 22 22 45 39 50 39 6 0 10 5
10 10 0 6 15 10 34 10 19 0 36 6 38 13 7 20 229 23 269 3 18 -9 49 -16 71 -16
21 0 38 -4 38 -10 0 -15 60 -12 76 4 8 8 14 30 14 50 0 32 -3 36 -35 42 -19 3
-35 10 -35 15 0 5 -16 9 -35 9 -19 0 -35 5 -35 10 0 6 -70 10 -190 10 -120 0
-190 -4 -190 -10z"/>
</g>
</svg>
